<?xml version="1.0" encoding="iso-8859-1"?>
<!-- Generator: Adobe Illustrator 16.0.0, SVG Export Plug-In . SVG Version: 6.00 Build 0)  -->
<!DOCTYPE svg PUBLIC "-//W3C//DTD SVG 1.1//EN" "http://www.w3.org/Graphics/SVG/1.1/DTD/svg11.dtd">
<svg xmlns="http://www.w3.org/2000/svg" xmlns:xlink="http://www.w3.org/1999/xlink" version="1.1" id="Capa_1" x="0px" y="0px" width="512px" height="512px" viewBox="0 0 33.519 33.519" style="enable-background:new 0 0 33.519 33.519;" xml:space="preserve">
<g>
	<g>
		<path d="M16.759,22.624c-0.57-0.027-3.071,4.191-4.773,5.867c2.693,1.928,4.773,3.026,4.773,3.026s2.083-1.102,4.78-3.031    C19.819,26.842,17.334,22.651,16.759,22.624z" fill="#4abdac"/>
		<path d="M33.454,9.813c-0.979-9.501-11.585-9.352-16.695-4.768C11.649,0.46,1.048,0.312,0.064,9.813    C-0.701,17.19,5.53,23.56,10.596,27.458c0.624-2.739,3.23-7.9,3.011-8.923c-0.282-1.311-5.356-5.688-4.625-6.195    c0.731-0.506,6.249,2.554,7.776,2.58c1.527,0.026,7.008-3.262,7.775-2.58c0.768,0.684-4.701,4.748-4.741,6.091    c-0.032,1.035,2.556,6.245,3.168,8.997C28.021,23.528,34.217,17.169,33.454,9.813z M16.759,13.898    c-1.553,0-2.813-1.26-2.813-2.813s1.259-2.813,2.813-2.813c1.555,0,2.813,1.26,2.813,2.813S18.312,13.898,16.759,13.898z" fill="#4abdac"/>
	</g>
</g>
<g>
</g>
<g>
</g>
<g>
</g>
<g>
</g>
<g>
</g>
<g>
</g>
<g>
</g>
<g>
</g>
<g>
</g>
<g>
</g>
<g>
</g>
<g>
</g>
<g>
</g>
<g>
</g>
<g>
</g>
</svg>
