<?xml version="1.0" encoding="utf-8"?>
<!-- Generator: Adobe Illustrator 18.0.0, SVG Export Plug-In . SVG Version: 6.00 Build 0)  -->
<!DOCTYPE svg PUBLIC "-//W3C//DTD SVG 1.1//EN" "http://www.w3.org/Graphics/SVG/1.1/DTD/svg11.dtd">
<svg version="1.1" id="Layer_1" xmlns="http://www.w3.org/2000/svg" xmlns:xlink="http://www.w3.org/1999/xlink" x="0px" y="0px"
	 viewBox="0 0 115.8 108.3" enable-background="new 0 0 115.8 108.3" xml:space="preserve">
<g>
	<g>
		<path fill="#7F5293" d="M112.1,28c-0.8-5.3-2.7-10.1-6.2-14.2c-5.7-6.6-13.3-9.1-21.8-8.9c-9.4,0.2-17.9,3.2-25.2,9.3
			c-0.5,0.4-0.8,0.5-1.3,0c-9-7.4-19.4-10.5-30.9-8.9C17.8,6.5,11,11,7.1,19.2c-3.4,7.1-3.9,14.6-2.5,22.3
			c1.5,8.3,5.2,15.6,10.1,22.4c6.4,8.8,14.2,16.2,22.6,22.9c0.9,0.7,1.1,0.4,1.3-0.5c0.8-3.2,2-6.3,3.2-9.4c2-5.2,4.3-10.4,5.9-15.8
			c0.6-1.9,0.2-3.4-1-5c-2.3-3.1-5-5.9-7.6-8.8c-2-2.3-4.2-4.5-5.8-7.1c-0.3-0.5-0.8-1-0.4-1.6c0.4-0.6,1.2-0.4,1.8-0.3
			c1.8,0.4,3.6,1.1,5.3,1.7c5.1,2,10.1,4.4,15.3,6.1c2,0.7,3.9,0.7,6,0c2.8-1,5.5-2.2,8.3-3.4c3.7-1.6,7.3-3.4,11.3-4.4
			c0.9-0.2,2.1-0.7,2.7,0.3c0.5,0.9-0.3,1.8-0.9,2.5c-1.6,2.1-3.4,3.9-5.3,5.7c-2.6,2.6-5.2,5.2-7.5,8c-1.6,1.8-2.2,3.8-1.1,6.1
			c0.4,0.8,0.6,1.7,0.9,2.5c2.9,7.7,6.4,15.1,8.5,23.1c0.2,0.9,0.6,0.6,1,0.2c1.3-1.1,2.7-2.1,4-3.2c9.2-7.8,17.6-16.4,23.4-27.2
			c3.7-6.9,6-14.1,6.1-23.1C112.7,32.2,112.4,30.1,112.1,28z M58.2,43.5c-5-0.1-9.1-4.2-9.1-9.2c0-4.9,4.2-9.1,9.1-9.1
			c4.9,0,9.2,4.2,9.2,9.1C67.4,39.3,63.1,43.6,58.2,43.5z"/>
		<path fill="#7F5293" d="M66.3,81.6c-2.2-3-4.3-6-6.7-8.8c-0.4-0.4-0.7-0.9-1.3-0.9c-0.5,0-0.8,0.3-1.1,0.6
			c-0.7,0.7-1.3,1.5-1.9,2.2c-4,5.1-7.5,10.7-11.9,15.4c-0.6,0.6-0.3,0.9,0.3,1.2c4.4,3,8.8,5.9,13.4,8.6c0.9,0.5,1.6,0.5,2.5,0
			c4.6-2.6,9-5.5,13.3-8.5c0.7-0.5,0.8-0.8,0.2-1.4C70.5,87.4,68.4,84.5,66.3,81.6z"/>
		<path fill="#FFFFFF" d="M58.2,25.2c-5,0-9.2,4.2-9.1,9.1c0,5,4.1,9.1,9.1,9.2c4.9,0.1,9.2-4.2,9.2-9.2
			C67.4,29.4,63.2,25.2,58.2,25.2z"/>
	</g>
</g>
</svg>
