<?xml version="1.0" encoding="iso-8859-1"?>
<!-- Generator: Adobe Illustrator 19.0.0, SVG Export Plug-In . SVG Version: 6.00 Build 0)  -->
<svg xmlns="http://www.w3.org/2000/svg" xmlns:xlink="http://www.w3.org/1999/xlink" version="1.1" id="Layer_1" x="0px" y="0px" viewBox="0 0 511.999 511.999" style="enable-background:new 0 0 511.999 511.999;" xml:space="preserve" width="512px" height="512px">
<g>
	<g>
		<path d="M511.896,101.401c-1.816-33.966-29.288-60.572-62.542-60.572c-18.816,0-34.386,10.708-44.495,20.207    c-10.004-9.507-25.527-20.207-44.722-20.207c-27.752,0-51.463,18.538-59.609,44.415c-6.815-9.019-15.047-15.788-24.666-20.2    c-14.98-6.869-29.503-6.274-39.13-4.531c-5.325-6.452-13.531-15.835-22.914-24.608c-25.997-24.31-47.785-31.173-64.752-20.394    c-63.626,40.422-68.655,42.807-81.936,47.42C26.51,77.041,13.721,96.449,19.947,134.54    c11.995,73.381,52.458,139.099,56.787,145.97c5.654,11.136,13.268,21.29,22.646,29.946c6.116,5.645,12.803,10.497,19.918,14.508    l-6.199,36.443h-10.735c-43.599,0-80.895,27.409-95.624,65.89c-0.271,0.599-0.51,1.215-0.702,1.852    C2.138,439.97,0,451.625,0,463.771v22.606c0,8.316,6.741,15.056,15.056,15.056h312.633c8.314,0,15.056-6.741,15.056-15.056    v-22.606c0-56.444-45.919-102.363-102.363-102.363h-10.735l-6.221-36.575c23.146-13.087,41.213-34.668,49.348-61.083    c2.088-4.619,13.728-30.635,24.547-60.066c8.552-23.267,13.617-40.497,16.422-53.514c9.505,12.16,26.805,28.061,40.967,39.779    c35.872,29.681,45.861,29.681,50.126,29.681c4.317,0,14.427,0,50.118-29.631c15.892-13.194,35.83-31.787,44.129-44.406    C505.109,136.424,512.994,121.869,511.896,101.401z M240.381,391.519c39.839,0,72.25,32.411,72.25,72.25v7.549H30.113v-7.549    c0-5.223,0.571-10.312,1.628-15.224h159.145c8.316,0,15.057-6.741,15.057-15.056c0-8.316-6.741-15.056-15.057-15.056H46.163    c13.256-16.4,33.519-26.913,56.2-26.913h23.449c7.342,0,13.613-5.295,14.843-12.531l7.313-42.992    c0.313,0.071,0.631,0.117,0.944,0.187c1.343,0.289,2.691,0.559,4.047,0.797c0.583,0.102,1.165,0.196,1.751,0.288    c1.281,0.203,2.569,0.379,3.86,0.536c0.55,0.066,1.098,0.135,1.649,0.193c1.466,0.154,2.941,0.273,4.418,0.366    c0.358,0.023,0.715,0.056,1.074,0.075c1.881,0.099,3.767,0.163,5.661,0.163c1.819,0,3.626-0.063,5.428-0.157    c0.443-0.023,0.884-0.056,1.326-0.083c1.289-0.083,2.572-0.188,3.851-0.318c0.647-0.065,1.295-0.126,1.942-0.203    c1.007-0.122,2.007-0.268,3.007-0.419c1.825-0.268,3.638-0.587,5.443-0.95c0.251-0.051,0.504-0.095,0.756-0.149    c0.55-0.114,1.107-0.2,1.653-0.325l7.313,42.992c1.23,7.238,7.501,12.531,14.843,12.531H240.381z M247.152,238.543    c-0.053,0.662-0.123,1.364-0.205,2.099c-1.036,6.735-2.207,11.604-2.569,13.034c-8.146,28.141-31.978,48.863-60.262,53.719    c-0.149,0.026-0.298,0.054-0.447,0.078c-0.766,0.126-1.539,0.235-2.311,0.337c-0.423,0.056-0.845,0.11-1.269,0.158    c-0.635,0.074-1.271,0.141-1.909,0.199c-0.631,0.056-1.263,0.101-1.897,0.142c-0.483,0.032-0.965,0.068-1.45,0.09    c-1.15,0.051-2.304,0.086-3.461,0.086c-0.018,0-0.035-0.002-0.053-0.002c-1.218-0.002-2.433-0.032-3.644-0.09    c-37.729-1.852-69.049-31.866-72.083-69.852c-0.974-12.202-1.84-23.345-2.579-33.242c9.379-7.027,19.129-8.043,45.88-10.061    c10.43-0.786,23.411-1.766,39.182-3.487c1.456-0.158,2.865-0.331,4.247-0.51c0.172-0.023,0.346-0.044,0.518-0.066    c1.397-0.185,2.755-0.381,4.079-0.586c0.083-0.012,0.166-0.026,0.247-0.038c23.012-3.588,35.03-10.136,41.753-17.533    c0.295,0.203,0.607,0.417,0.915,0.629c0.717,0.492,1.435,0.988,2.138,1.473c0.602,0.414,1.18,0.858,1.751,1.314    c0.145,0.116,0.288,0.23,0.429,0.349c0.529,0.44,1.045,0.894,1.546,1.372c0.149,0.141,0.291,0.291,0.435,0.435    c0.358,0.354,0.706,0.72,1.049,1.093c0.19,0.208,0.382,0.413,0.568,0.625c0.376,0.432,0.738,0.881,1.095,1.336    c0.25,0.319,0.492,0.644,0.729,0.973c0.13,0.179,0.255,0.364,0.382,0.547c0.477,0.688,0.935,1.39,1.366,2.112    c0.029,0.048,0.057,0.096,0.086,0.145c5.557,9.419,7.292,21.645,7.311,33.168C248.212,225.162,247.685,231.862,247.152,238.543z     M273.004,182.249c-0.089-0.242-0.185-0.479-0.276-0.72c-3.534-9.483-8.894-18.363-16.789-25.682    c-0.026-0.024-0.053-0.05-0.078-0.074c-0.988-0.912-2.016-1.799-3.084-2.66c-0.161-0.129-0.325-0.256-0.486-0.385    c-1.04-0.822-2.106-1.628-3.225-2.398c-0.866-0.596-1.683-1.161-2.465-1.697c-0.28-0.193-0.557-0.382-0.83-0.569    c-1.897-1.302-3.567-2.442-4.999-3.398c-0.066-0.045-0.142-0.075-0.208-0.117c-9.815-6.473-14.689-8.385-21.739-6.053    c-7.906,2.618-10.246,9.493-11.127,12.08c-0.667,1.962-2.757,3.617-5.618,5.006c-3.004,1.408-7.456,2.895-13.775,4.186    c-0.286,0.057-0.572,0.114-0.857,0.17c-0.092,0.018-0.185,0.036-0.277,0.054c-3.282,0.629-6.468,1.101-9.151,1.445    c-0.188,0.024-0.375,0.048-0.566,0.072c-0.245,0.03-0.489,0.06-0.726,0.089c-0.631,0.075-1.269,0.149-1.923,0.221    c-15.272,1.665-27.443,2.584-38.182,3.394c-2.508,0.19-4.911,0.372-7.241,0.556c-28.464,2.24-44.088,4.646-62.388,22.266    c-0.286,0.276-0.547,0.574-0.807,0.869c-0.101,0.099-0.202,0.191-0.303,0.291c-6.794-18.336-12.819-38.692-16.222-59.512    c-3.311-20.254-2.915-27.793,27.346-38.304c16.719-5.807,24.074-9.707,88.202-50.447c0.17-0.108,0.503-0.187,1.006-0.187    c2.895,0,11.405,2.602,26.792,16.931c14.215,13.239,25.864,28.755,25.98,28.91c4.088,5.475,11.35,7.51,17.687,4.957    c0.132-0.054,13.745-5.036,26.633,0.875c9.925,4.552,17.627,14.701,22.892,30.167    C286.365,123.058,289.712,134.084,273.004,182.249z M473.921,129.049c-10.607,16.128-55.078,53.458-69.049,59.923    c-14.09-6.554-58.743-43.914-69.299-59.934c-6.026-9.144-8.388-16.928-7.903-26.03c0.947-17.682,15.513-32.067,32.469-32.067    c14.582,0,28.118,15.296,32.069,21.138c2.751,4.142,7.369,6.661,12.34,6.729c4.931,0.06,9.656-2.325,12.516-6.39    c3.921-5.571,18.27-21.477,32.29-21.477c16.96,0,31.525,14.385,32.472,32.069C482.321,112.211,480.028,119.756,473.921,129.049z" fill="#4abdac"/>
	</g>
</g>
<g>
	<g>
		<path d="M250.58,430.543c-0.196-0.949-0.482-1.897-0.858-2.816c-0.376-0.903-0.843-1.777-1.385-2.59    c-0.557-0.828-1.189-1.596-1.882-2.289c-3.493-3.493-8.688-5.104-13.581-4.125c-0.964,0.196-1.912,0.482-2.816,0.858    c-0.918,0.376-1.792,0.843-2.605,1.385c-0.828,0.557-1.596,1.189-2.289,1.882c-0.693,0.693-1.325,1.461-1.867,2.289    c-0.542,0.813-1.009,1.686-1.385,2.59c-0.376,0.918-0.663,1.867-0.858,2.816c-0.196,0.979-0.301,1.972-0.301,2.951    c0,0.979,0.105,1.972,0.301,2.936c0.196,0.964,0.482,1.912,0.858,2.815c0.376,0.918,0.843,1.792,1.385,2.605    c0.542,0.828,1.174,1.596,1.867,2.289c0.693,0.693,1.46,1.325,2.289,1.867c0.813,0.542,1.686,1.009,2.605,1.385    c0.903,0.376,1.852,0.662,2.816,0.858c0.964,0.196,1.957,0.301,2.936,0.301c3.96,0,7.844-1.611,10.645-4.412    c0.693-0.693,1.325-1.46,1.882-2.289c0.542-0.813,1.009-1.686,1.385-2.605c0.376-0.903,0.663-1.852,0.858-2.816    c0.196-0.964,0.286-1.957,0.286-2.936C250.867,432.515,250.776,431.522,250.58,430.543z" fill="#4abdac"/>
	</g>
</g>
<g>
</g>
<g>
</g>
<g>
</g>
<g>
</g>
<g>
</g>
<g>
</g>
<g>
</g>
<g>
</g>
<g>
</g>
<g>
</g>
<g>
</g>
<g>
</g>
<g>
</g>
<g>
</g>
<g>
</g>
</svg>
